<svg width="64" height="64" viewBox="0 0 64 64" fill="none" xmlns="http://www.w3.org/2000/svg" shape-rendering="crispEdges">
  <path d="M20 4H44V8H48V12H52V16H56V20H60V44H56V48H52V52H48V56H44V60H20V56H16V52H12V48H8V44H4V20H8V16H12V12H16V8H20V4Z" fill="#FFF1A8" fill-opacity="0.2"/>
  <path d="M24 12H48V16H52V20H56V44H52V48H48V52H24V48H20V44H16V20H20V16H24V12Z" fill="#A66C00"/>
  <path d="M20 8H44V12H48V16H52V20H56V44H52V48H48V52H44V56H20V52H16V48H12V44H8V20H12V16H16V12H20V8Z" fill="#4A2E00"/>
  <path d="M20 12H44V16H48V20H52V44H48V48H44V52H20V48H16V44H12V20H16V16H20V12Z" fill="#F7C948"/>
  <path d="M20 12H44V16H20V12ZM16 16H20V20H16V16ZM44 16H48V20H44V16ZM12 20H16V28H12V20ZM48 20H52V28H48V20Z" fill="#FFF4B8"/>
  <path d="M20 48H44V52H20V48ZM16 44H20V48H16V44ZM44 44H48V48H44V44ZM12 36H16V44H12V36ZM48 36H52V44H48V36Z" fill="#E0A611"/>
  <rect x="20" y="24" width="8" height="8" fill="#3B2400"/>
  <rect x="36" y="24" width="8" height="8" fill="#3B2400"/>
  <rect x="18" y="38" width="4" height="4" fill="#3B2400"/>
  <rect x="22" y="42" width="4" height="4" fill="#3B2400"/>
  <rect x="26" y="46" width="4" height="4" fill="#3B2400"/>
  <rect x="30" y="46" width="4" height="4" fill="#3B2400"/>
  <rect x="34" y="46" width="4" height="4" fill="#3B2400"/>
  <rect x="38" y="42" width="4" height="4" fill="#3B2400"/>
  <rect x="42" y="38" width="4" height="4" fill="#3B2400"/>
  <rect x="14" y="34" width="4" height="8" fill="#FFD66B" fill-opacity="0.6"/>
  <rect x="46" y="34" width="4" height="8" fill="#FFD66B" fill-opacity="0.6"/>
</svg>
